<svg xmlns="http://www.w3.org/2000/svg" xmlns:xlink="http://www.w3.org/1999/xlink" version="1.1" width="595.276pt" height="595.28pt" viewBox="0 0 595.276 595.28">
<defs>
<clipPath id="clip_0">
<path transform="matrix(1,0,0,-1,0,595.28)" d="M0 595.28H595.276V0H0Z"/>
</clipPath>
</defs>
<g id="layer_1" data-name="Layer 1">
<g clip-path="url(#clip_0)">
<path transform="matrix(1,0,0,-1,476.9795,499.99095)" d="M0 0-1.311 .047C-28.382 1.042-54.354 7.554-78.505 19.402-90.068 25.053-101.133 31.936-111.384 39.857-119.146 45.833-126.556 52.515-133.401 59.714-135.249 61.654-137.003 63.57-138.612 65.409-142.06 69.318-145.35 73.386-148.385 77.491L-149.974 79.263C-155.758 85.69-162.004 91.729-168.537 97.208-175.512 103.074-182.976 108.451-190.728 113.195-219.863 131.191-253.485 140.7-287.969 140.7-337.519 140.7-384.127 121.416-419.211 86.399L-422.485 83.132-424.454 87.317C-432.747 104.947-439.126 123.516-443.415 142.508L-437.066 143.941C-433.218 126.897-427.644 110.204-420.479 94.251-384.575 128.437-337.702 147.208-287.969 147.208-252.276 147.208-217.473 137.364-187.319 118.739-179.302 113.832-171.571 108.263-164.352 102.191-157.59 96.521-151.122 90.269-145.134 83.613L-143.241 81.48C-140.292 77.484-137.089 73.521-133.723 69.704-132.166 67.925-130.474 66.076-128.687 64.2-122.07 57.24-114.912 50.786-107.41 45.011-97.502 37.354-86.815 30.706-75.643 25.247-52.702 13.993-28.062 7.724-2.382 6.604 1.907 10.479 6.106 14.537 10.114 18.684 16.053 24.796 21.665 31.179 26.803 37.663 31.59 43.596 36.252 49.979 40.675 56.659 44.791 62.855 48.676 69.291 52.224 75.793 55.591 81.901 58.827 88.425 61.849 95.193 64.694 101.612 67.327 108.239 69.67 114.884 73.077 124.6 75.94 134.62 78.176 144.662L84.528 143.247C82.236 132.956 79.304 122.688 75.81 112.725 73.408 105.916 70.712 99.128 67.794 92.548 64.694 85.606 61.377 78.918 57.931 72.663 54.299 66.009 50.316 59.411 46.098 53.062 41.564 46.218 36.782 39.667 31.886 33.599 26.631 26.966 20.872 20.417 14.788 14.155 10.372 9.587 5.724 5.115 .978 .873Z" fill="#231f20"/>
<path transform="matrix(1,0,0,-1,559.7324,267.13453)" d="M0 0C-6.254 54.388-28.948 104.756-65.628 145.658-115.673 201.493-187.351 233.517-262.279 233.517-394.858 233.517-507.447 134.5-524.172 3.195L-530.627 4.018C-513.49 138.563-398.125 240.024-262.279 240.024-185.503 240.024-112.061 207.213-60.781 150.001-23.197 108.092 .057 56.479 6.466 .744Z" fill="#231f20"/>
<path transform="matrix(1,0,0,-1,59.4028,411.98014)" d="M0 0C13.098-27.212 30.637-51.811 52.156-73.138 56.023-76.963 60.061-80.72 64.156-84.302 68.625-88.216 73.087-91.877 77.417-95.186 82.189-98.87 87.166-102.43 92.225-105.772 97.808-109.488 103.436-112.933 108.958-116.016 115.08-119.462 121.568-122.764 128.254-125.835 162.778-141.658 199.719-149.682 238.05-149.682 265.152-149.682 291.877-145.587 317.486-137.511 350.938-126.987 381.43-110.179 408.231-87.504 384.052-85.622 360.823-79.28 339.072-68.608 327.909-63.154 316.852-56.276 306.209-48.166 293.406-38.41 272.707-15.189 269.197-10.525L267.603-8.748C261.819-2.32 255.573 3.718 249.04 9.197 242.065 15.063 234.601 20.44 226.849 25.185 197.713 43.181 164.092 52.689 129.608 52.689 80.824 52.689 34.89 33.996 0 0M238.05-156.189C198.778-156.189 160.924-147.967 125.541-131.75 118.69-128.604 112.042-125.22 105.777-121.692 100.116-118.532 94.343-114.999 88.628-111.195 83.445-107.771 78.336-104.119 73.453-100.346 69.022-96.961 64.447-93.207 59.869-89.198 55.676-85.53 51.541-81.683 47.578-77.763 24.967-55.353 6.647-29.424-6.876-.693L-7.852 1.377-6.231 2.994C30.08 39.237 78.322 59.197 129.608 59.197 165.3 59.197 200.104 49.354 230.258 30.729 238.275 25.821 246.005 20.252 253.225 14.181 259.987 8.51 266.455 2.257 272.443-4.397L274.335-6.53C277.326-10.582 297.92-33.668 310.154-42.989 320.458-50.841 331.149-57.494 341.934-62.764 365.264-74.21 390.353-80.499 416.505-81.46L424.55-81.756 418.56-87.133C389.648-113.085 356.3-132.122 319.442-143.718 293.202-151.993 265.817-156.189 238.05-156.189" fill="#231f20"/>
<path transform="matrix(1,0,0,-1,295.7573,385.14814)" d="M0 0C5.848-3.896 11.5-8.135 16.871-12.651 23.632-18.322 30.1-24.575 36.089-31.229L37.981-33.362C40.93-37.358 44.133-41.321 47.5-45.139 49.056-46.918 50.749-48.767 52.535-50.643 59.152-57.603 66.31-64.057 73.812-69.832 83.72-77.488 94.407-84.137 105.58-89.596 128.52-100.85 153.16-107.119 178.84-108.239 183.129-104.364 187.329-100.306 191.336-96.159 197.275-90.047 202.887-83.664 208.025-77.18 212.812-71.247 217.474-64.863 221.897-58.184 226.013-51.987 229.898-45.552 233.446-39.05 236.813-32.941 240.049-26.418 243.071-19.649 245.462-14.255 247.705-8.711 249.75-3.136 207.728 9.813 163.934 16.378 119.531 16.378 78.91 16.378 38.736 10.871 0 0M181.222-114.843 179.912-114.796C152.84-113.801 126.869-107.289 102.717-95.44 91.154-89.79 80.089-82.907 69.838-74.985 62.076-69.01 54.667-62.328 47.821-55.129 45.973-53.188 44.219-51.272 42.61-49.434 39.163-45.524 35.873-41.457 32.836-37.352L31.249-35.58C25.464-29.152 19.218-23.114 12.685-17.635 5.71-11.769-1.754-6.392-9.505-1.647L-15.726 2.161-8.736 4.246C32.715 16.614 75.871 22.886 119.531 22.886 165.741 22.886 211.299 15.879 254.943 2.062L258.147 1.047 257.029-2.123C254.63-8.927 251.934-15.715 249.016-22.295 245.917-29.236 242.599-35.925 239.153-42.18 235.521-48.834 231.539-55.432 227.32-61.781 222.787-68.625 218.004-75.176 213.108-81.244 207.853-87.877 202.094-94.426 196.01-100.688 191.594-105.256 186.946-109.728 182.2-113.97Z" fill="#231f20"/>
<path transform="matrix(1,0,0,-1,317.4746,402.00856)" d="M0 0C5.013-4.507 9.829-9.322 14.372-14.369L16.264-16.502C19.213-20.498 22.416-24.461 25.782-28.278 27.339-30.058 29.031-31.906 30.817-33.782 37.435-40.742 44.593-47.196 52.095-52.972 62.003-60.628 72.689-67.276 83.862-72.735 106.803-83.989 131.443-90.259 157.123-91.379 161.412-87.504 165.611-83.445 169.619-79.299 175.558-73.187 181.17-66.804 186.308-60.319 191.095-54.387 195.757-48.003 200.18-41.323 204.296-35.127 208.181-28.691 211.729-22.189 214.528-17.11 217.237-11.745 219.809-6.189 180.313 5.134 139.289 10.873 97.813 10.873 64.797 10.873 31.923 7.216 0 0M159.505-97.982 158.194-97.936C131.123-96.94 105.151-90.429 81-78.58 69.436-72.93 58.372-66.047 48.121-58.125 40.358-52.149 32.949-45.468 26.104-38.269 24.256-36.328 22.502-34.412 20.893-32.573 17.445-28.664 14.155-24.597 11.119-20.491L9.531-18.72C3.747-12.292-2.499-6.254-9.032-.774L-13.973 3.369-7.705 4.882C26.646 13.176 62.148 17.381 97.813 17.381 141.175 17.381 184.05 11.198 225.248-.996L228.811-2.051 227.296-5.443C224.199-12.376 220.882-19.064 217.436-25.319 213.804-31.974 209.821-38.571 205.603-44.921 201.069-51.765 196.287-58.315 191.391-64.384 186.136-71.017 180.377-77.565 174.293-83.827 169.877-88.396 165.229-92.867 160.482-97.109Z" fill="#231f20"/>
<path transform="matrix(1,0,0,-1,376.3496,459.97724)" d="M0 0C7.944-5.58 16.318-10.531 24.987-14.767 47.928-26.021 72.567-32.29 98.248-33.41 102.537-29.535 106.736-25.477 110.744-21.33 115.411-16.526 119.878-11.555 124.07-6.498 83.613 1.405 41.604 3.636 0 0M100.63-40.014 99.319-39.967C72.248-38.972 46.276-32.46 22.125-20.611 10.562-14.961-.503-8.078-10.754-.156L-17.162 4.796-9.11 5.655C6.795 7.351 22.961 8.211 38.938 8.211 69.833 8.211 100.688 5.049 130.646-1.186L135.808-2.261 132.533-6.393C127.261-13.048 121.502-19.597 115.418-25.858 111.002-30.427 106.354-34.898 101.607-39.141Z" fill="#231f20"/>
<path transform="matrix(1,0,0,-1,414.7031,480.66184)" d="M0 0C19.05-7.549 39.134-11.821 59.895-12.726 62.629-10.255 65.327-7.71 67.962-5.115 45.62-1.69 22.855 .007 0 0M62.276-19.329 60.966-19.282C33.895-18.287 7.923-11.775-16.229 .073L-27.914 5.806-14.905 6.246C-9.785 6.42-4.574 6.508 .585 6.508 25.658 6.508 50.786 4.42 75.27 .302L81.366-.724 77.07-5.168C72.648-9.742 68-14.214 63.254-18.456Z" fill="#231f20"/>
<path transform="matrix(1,0,0,-1,335.4082,420.73313)" d="M0 0C2.476-3.24 5.107-6.445 7.849-9.554 9.405-11.333 11.098-13.182 12.884-15.058 19.501-22.018 26.659-28.472 34.161-34.247 44.069-41.903 54.756-48.552 65.929-54.011 88.869-65.265 113.509-71.534 139.189-72.654 143.479-68.779 147.678-64.721 151.686-60.574 157.624-54.462 163.236-48.079 168.374-41.595 173.161-35.662 177.823-29.278 182.246-22.599 185.596-17.557 188.791-12.357 191.777-7.093 155.451 2.399 117.828 7.211 79.88 7.211 53.017 7.211 26.172 4.786 0 0M141.571-79.258 140.261-79.211C113.189-78.216 87.218-71.704 63.066-59.855 51.503-54.205 40.438-47.322 30.187-39.4 22.425-33.425 15.016-26.743 8.17-19.544 6.321-17.604 4.568-15.688 2.959-13.849-.488-9.939-3.778-5.872-6.813-1.768L-12.229 4.271-6.606 5.372C21.664 10.91 50.762 13.719 79.88 13.719 119.807 13.719 159.381 8.469 197.504-1.884L201.482-2.964 199.508-6.583C195.87-13.249 191.888-19.847 187.669-26.196 183.136-33.04 178.354-39.591 173.457-45.659 168.202-52.292 162.443-58.841 156.359-65.103 151.943-69.671 147.295-74.143 142.549-78.385Z" fill="#231f20"/>
<path transform="matrix(1,0,0,-1,352.7383,440.31123)" d="M0 0C5.338-5.247 10.98-10.165 16.831-14.669 26.739-22.325 37.426-28.974 48.599-34.433 71.539-45.687 96.179-51.956 121.859-53.076 126.148-49.201 130.348-45.143 134.355-40.996 140.294-34.884 145.906-28.501 151.044-22.017 154.896-17.243 158.667-12.177 162.297-6.9 129.783 .601 96.249 4.402 62.55 4.402 41.65 4.402 20.642 2.923 0 0M124.241-59.68 122.931-59.633C95.859-58.638 69.888-52.126 45.736-40.277 34.173-34.627 23.108-27.744 12.857-19.822 5.095-13.847-2.314-7.165-9.16 .034L-13.438 4.532-7.306 5.491C15.684 9.087 39.186 10.91 62.55 10.91 98.346 10.91 133.957 6.683 168.395-1.654L172.902-2.746 170.342-6.613C165.806-13.462 161.023-20.013 156.127-26.081 150.872-32.714 145.113-39.263 139.029-45.524 134.613-50.093 129.965-54.564 125.219-58.807Z" fill="#231f20"/>
<path transform="matrix(1,0,0,-1,57.6128,289.22434)" d="M0 0V-46.53H-3.211V-3.875L-24.876-25.539-46.541-3.875V-46.53H-49.751V0H-48.146L-47.012 1.135-24.876-20.99-2.74 1.135-1.605 0Z" fill="#231f20"/>
<path transform="matrix(1,0,0,-1,55.4858,334.66865)" d="M0 0H1.042V44.359H.072L-.613 45.045-22.749 22.92-44.884 45.045-45.57 44.359H-46.541V0H-45.499V44.188L-22.749 21.438 0 44.188ZM3.212-2.17H-2.169V38.951L-22.749 18.37-43.329 38.951V-2.17H-48.71V46.529H-46.469L-44.884 48.112-22.749 25.987-.613 48.112 .971 46.529H3.212Z" fill="#231f20"/>
<path transform="matrix(1,0,0,-1,0,595.28)" d="M206.031 285.29H163.194V305.103H206.031ZM209.242 306.709H207.636V308.314H159.982V260.66H163.194V282.079H183.959L206.502 259.525 208.771 261.795 188.508 282.079H209.242Z" fill="#231f20"/>
<path transform="matrix(1,0,0,-1,0,595.28)" d="M164.278 286.375H204.94699V304.019H164.278ZM162.109 283.164H184.408L206.501 261.06 207.238 261.796 185.893 283.164H208.157V305.625H207.116V284.206H162.109V306.188H206.551V307.23H161.067V261.745H162.109ZM206.501 257.992 183.51 280.994H164.278V259.576H158.898V309.399H208.721V307.793H210.326V280.994H191.125L210.305 261.794Z" fill="#231f20"/>
<path transform="matrix(1,0,0,-1,359.2754,335.75465)" d="M0 0H-47.661V49.267H0V46.056H-44.45V3.212H0Z" fill="#231f20"/>
<path transform="matrix(1,0,0,-1,312.6982,334.66865)" d="M0 0H45.492V1.041H1.042V46.054H45.492V47.097H0ZM47.662-2.17H-2.169V49.266H47.662V43.885H3.212V3.21H47.662Z" fill="#231f20"/>
<path transform="matrix(1,0,0,-1,87.2061,335.75465)" d="M0 0-2.873 1.437 21.592 50.364 46.056 1.437 43.183 0 21.592 43.183Z" fill="#231f20"/>
<path transform="matrix(1,0,0,-1,85.7891,333.83274)" d="M0 0 .932-.466 23.009 43.687 45.085-.466 46.018 0 23.009 46.017ZM44.115-3.376 23.009 38.835 1.902-3.376-2.911-.97 23.009 50.868 48.928-.97Z" fill="#231f20"/>
<path transform="matrix(1,0,0,-1,282.0176,335.75465)" d="M0 0-21.589 43.406-43.179 0-46.055 1.431-21.589 50.616 2.876 1.431Z" fill="#231f20"/>
<path transform="matrix(1,0,0,-1,237.417,333.83564)" d="M0 0 .933-.464 23.011 43.921 45.088-.464 46.021 0 23.011 46.262ZM44.112-3.372 23.011 39.051 1.91-3.372-2.909-.977 23.011 51.133 48.93-.977Z" fill="#231f20"/>
<path transform="matrix(1,0,0,-1,432.0508,335.17164)" d="M0 0-21.592 43.182-43.183 0-46.055 1.437-21.592 50.364 2.873 1.437Z" fill="#231f20"/>
<path transform="matrix(1,0,0,-1,410.459,289.56373)" d="M0 0 22.077-44.153 23.009-43.687 0 2.331-23.008-43.687-22.075-44.153ZM-21.105-47.064-25.918-44.658 0 7.182 25.92-44.658 21.106-47.064 0-4.851Z" fill="#231f20"/>
<path transform="matrix(1,0,0,-1,584.1719,335.17164)" d="M0 0-21.592 43.182-43.183 0-46.055 1.437-21.592 50.364 2.872 1.437Z" fill="#231f20"/>
<path transform="matrix(1,0,0,-1,562.5801,289.56373)" d="M0 0 22.077-44.153 23.009-43.687 0 2.331-23.009-43.687-22.076-44.153ZM-21.106-47.064-25.919-44.658 0 7.182 25.92-44.658 21.106-47.064 0-4.851Z" fill="#231f20"/>
<path transform="matrix(1,0,0,-1,511.3965,287.29225)" d="M0 0V-46.53H-3.212L-24.876-25.54-46.541-3.875V-46.53H-49.752V0H-48.146L-47.012 1.135-24.876-20.991-2.74-42.745V1.135L-1.606 0Z" fill="#231f20"/>
<path transform="matrix(1,0,0,-1,508.625,332.73704)" d="M0 0H1.687V44.36H1.115V.114L-22.865 23.681-44.24 45.045-44.926 44.36H-45.896V0H-44.854V44.188L-21.338 20.673ZM3.856-2.169H-.88L-22.86 19.127-42.685 38.952V-2.169H-48.065V46.529H-45.824L-44.24 48.113-21.338 25.221-1.055 5.287V49.196L1.615 46.529H3.856Z" fill="#231f20"/>
<path transform="matrix(1,0,0,-1,0,595.28)" d="M299.901 367.174H293.393V471.43104H299.901Z" fill="#231f20"/>
<path transform="matrix(1,0,0,-1,426.7109,167.84152)" d="M0 0-73.721 73.72-69.12 78.321 4.602 4.601Z" fill="#231f20"/>
<path transform="matrix(1,0,0,-1,165.4941,175.94065)" d="M0 0-4.602 4.602 69.12 78.323 73.721 73.722Z" fill="#231f20"/>
<path transform="matrix(1,0,0,-1,254.041,37.02466)" d="M0 0C3.232-20.675 21.405-36.464 42.628-36.464 63.809-36.464 81.961-20.699 85.21-.059 57.413 4.52 27.875 4.548 0 0M42.628-42.972C17.048-42.972-4.682-23.036-6.841 2.415L-7.093 5.381-4.162 5.896C26.363 11.253 58.947 11.224 89.38 5.83L92.309 5.311 92.055 2.348C89.87-23.065 68.161-42.972 42.628-42.972" fill="#231f20"/>
</g>
</g>
</svg>
